HIERARCHY
ROOT Hips
{
	OFFSET 0.000000 89.005402 0.000000
	CHANNELS 6 Xposition Yposition Zposition Xrotation Yrotation Zrotation
	JOINT Spine
	{
		OFFSET 0.116900 10.681000 0.373400
		CHANNELS 3 Xrotation Yrotation Zrotation
		JOINT Spine1
		{
			OFFSET 0.000000 13.840401 0.053500
			CHANNELS 3 Xrotation Yrotation Zrotation
			JOINT Spine2
			{
				OFFSET 0.000000 14.712700 -0.366200
				CHANNELS 3 Xrotation Yrotation Zrotation
				JOINT Neck
				{
					OFFSET 0.000000 35.415497 -3.314200
					CHANNELS 3 Xrotation Yrotation Zrotation
					JOINT Head
					{
						OFFSET 0.000000 16.899200 1.218300
						CHANNELS 3 Xrotation Yrotation Zrotation
						JOINT HeadTop_End
						{
							OFFSET 0.000000 22.206207 2.192500
							CHANNELS 3 Xrotation Yrotation Zrotation
							End Site
							{
								OFFSET 0.000000 22.314178 0.000000
							}
						}
					}
				}
				JOINT LeftShoulder
				{
					OFFSET 12.896400 26.716293 -4.548400
					CHANNELS 3 Xrotation Yrotation Zrotation
					JOINT LeftArm
					{
						OFFSET 19.027000 -4.857010 -1.718400
						CHANNELS 3 Xrotation Yrotation Zrotation
						JOINT LeftForeArm
						{
							OFFSET 24.179897 0.000000 0.000000
							CHANNELS 3 Xrotation Yrotation Zrotation
							JOINT LeftHand
							{
								OFFSET 27.156403 0.000000 0.000000
								CHANNELS 3 Xrotation Yrotation Zrotation
								JOINT LeftHandIndex1
								{
									OFFSET 16.441200 0.000000 0.000000
									CHANNELS 3 Xrotation Yrotation Zrotation
									JOINT LeftHandIndex2
									{
										OFFSET 4.821899 0.000000 0.000000
										CHANNELS 3 Xrotation Yrotation Zrotation
										JOINT LeftHandIndex3
										{
											OFFSET 6.386497 0.000000 0.000000
											CHANNELS 3 Xrotation Yrotation Zrotation
											JOINT LeftHandIndex4
											{
												OFFSET 5.188988 0.000000 0.000000
												CHANNELS 3 Xrotation Yrotation Zrotation
												End Site
												{
													OFFSET -0.178703 5.185913 0.000177
												}
											}
										}
									}
								}
								JOINT LeftHandThumb1
								{
									OFFSET 6.534897 -5.032593 5.900300
									CHANNELS 3 Xrotation Yrotation Zrotation
									JOINT LeftHandThumb2
									{
										OFFSET 3.818176 -2.204422 2.204423
										CHANNELS 3 Xrotation Yrotation Zrotation
										JOINT LeftHandThumb3
										{
											OFFSET 3.252098 -1.877594 1.877601
											CHANNELS 3 Xrotation Yrotation Zrotation
											JOINT LeftHandThumb4
											{
												OFFSET 5.251778 -3.032120 3.032117
												CHANNELS 3 Xrotation Yrotation Zrotation
												End Site
												{
													OFFSET 0.000023 6.780014 0.000000
												}
											}
										}
									}
								}
							}
						}
					}
				}
				JOINT RightShoulder
				{
					OFFSET -12.896300 26.716293 -4.548400
					CHANNELS 3 Xrotation Yrotation Zrotation
					JOINT RightArm
					{
						OFFSET -19.027000 -4.857010 -1.718400
						CHANNELS 3 Xrotation Yrotation Zrotation
						JOINT RightForeArm
						{
							OFFSET -24.179897 0.000000 0.000000
							CHANNELS 3 Xrotation Yrotation Zrotation
							JOINT RightHand
							{
								OFFSET -27.156403 0.000000 0.000000
								CHANNELS 3 Xrotation Yrotation Zrotation
								JOINT RightHandThumb1
								{
									OFFSET -6.591202 -4.852203 5.988100
									CHANNELS 3 Xrotation Yrotation Zrotation
									JOINT RightHandThumb2
									{
										OFFSET -3.818176 -2.204422 2.204423
										CHANNELS 3 Xrotation Yrotation Zrotation
										JOINT RightHandThumb3
										{
											OFFSET -3.252098 -1.877594 1.877601
											CHANNELS 3 Xrotation Yrotation Zrotation
											JOINT RightHandThumb4
											{
												OFFSET -5.251778 -3.032120 3.032117
												CHANNELS 3 Xrotation Yrotation Zrotation
												End Site
												{
													OFFSET -0.000023 6.780014 0.000000
												}
											}
										}
									}
								}
								JOINT RightHandIndex1
								{
									OFFSET -16.029404 0.000000 0.000000
									CHANNELS 3 Xrotation Yrotation Zrotation
									JOINT RightHandIndex2
									{
										OFFSET -5.213303 0.000000 0.000000
										CHANNELS 3 Xrotation Yrotation Zrotation
										JOINT RightHandIndex3
										{
											OFFSET -6.386528 0.000000 0.000000
											CHANNELS 3 Xrotation Yrotation Zrotation
											JOINT RightHandIndex4
											{
												OFFSET -5.189026 0.000000 0.000000
												CHANNELS 3 Xrotation Yrotation Zrotation
												End Site
												{
													OFFSET 0.236702 5.183624 0.001972
												}
											}
										}
									}
								}
							}
						}
					}
				}
			}
		}
	}
	JOINT LeftUpLeg
	{
		OFFSET 14.073000 -7.904099 -1.463000
		CHANNELS 3 Xrotation Yrotation Zrotation
		JOINT LeftLeg
		{
			OFFSET -0.109806 -34.073280 4.093200
			CHANNELS 3 Xrotation Yrotation Zrotation
			JOINT LeftFoot
			{
				OFFSET 0.109806 -29.899420 -6.319000
				CHANNELS 3 Xrotation Yrotation Zrotation
				JOINT LeftToeBase
				{
					OFFSET 1.551100 -14.988700 20.535801
					CHANNELS 3 Xrotation Yrotation Zrotation
					JOINT LeftToe_End
					{
						OFFSET 0.221200 0.570800 13.248301
						CHANNELS 3 Xrotation Yrotation Zrotation
						End Site
						{
							OFFSET 0.000000 13.262435 0.000000
						}
					}
				}
			}
		}
	}
	JOINT RightUpLeg
	{
		OFFSET -13.839300 -7.904099 -1.463000
		CHANNELS 3 Xrotation Yrotation Zrotation
		JOINT RightLeg
		{
			OFFSET 0.109694 -34.073219 4.093300
			CHANNELS 3 Xrotation Yrotation Zrotation
			JOINT RightFoot
			{
				OFFSET -0.109694 -29.899384 -6.319200
				CHANNELS 3 Xrotation Yrotation Zrotation
				JOINT RightToeBase
				{
					OFFSET -1.551100 -14.988700 20.535801
					CHANNELS 3 Xrotation Yrotation Zrotation
					JOINT RightToe_End
					{
						OFFSET -0.221200 0.570900 13.248299
						CHANNELS 3 Xrotation Yrotation Zrotation
						End Site
						{
							OFFSET 0.000000 13.262440 0.000000
						}
					}
				}
			}
		}
	}
}
MOTION
Frames: 6
Frame Time: 0.033333
26.544840 72.122116 42.430088 2.665913 10.538159 -7.364654 1.562357 8.396389 -5.780679 0.350842 6.230765 -3.203213 0.315341 6.273220 -3.142877 -1.115354 -13.012603 4.400832 5.474845 -54.723144 15.741694 -0.000000 -0.000002 -0.000000 3.123191 -5.134221 1.958135 37.192132 0.116249 -57.487537 0.000023 -130.203596 0.000022 -22.399260 -16.624933 11.500055 1.049943 8.615727 -40.042004 3.744806 6.184709 -69.224083 1.753378 4.177903 -48.146359 0.000000 -0.000001 -0.000004 15.461726 -4.153214 1.798875 3.627218 35.387466 -13.070642 12.717506 54.928890 3.536417 0.000000 -0.000000 -0.000001 10.589273 11.379193 -19.645562 -65.133784 -0.620857 33.757425 -0.000007 18.849905 0.000002 -27.164796 -14.745111 -28.006625 17.255575 -1.222949 13.885379 9.268831 -56.067356 -10.265411 36.687446 -59.101333 10.534500 -0.000001 -0.000001 -0.000000 -0.866383 -4.868175 93.608863 8.121301 -6.066787 113.878672 5.667331 -5.966161 100.785937 0.000000 -0.000002 -0.000000 -53.866328 -8.588066 16.476846 44.737012 -9.665537 9.967398 -0.081054 -16.225178 -21.898684 0.426902 0.000262 -0.152015 -0.000000 0.000000 0.000000 31.057533 -21.805316 0.651405 13.747889 -8.134687 2.645476 -25.387103 -33.151761 18.169292 -6.892338 -0.000000 -0.000001 0.000000 0.000001 0.000000 
27.349279 70.138916 43.241821 3.936112 13.631818 -8.428153 1.161724 8.842774 -5.456735 0.071316 6.286863 -3.334199 0.023691 6.342223 -3.255810 -2.611846 -12.748309 2.862493 -0.597171 -54.554825 10.570726 0.000001 -0.000001 -0.000001 2.861334 -4.417898 0.916742 43.046577 0.746053 -58.254362 -0.000018 -131.442264 -0.000013 -25.953250 -22.896123 11.448138 1.422132 9.133003 -46.310595 4.346324 6.374788 -75.501813 2.231433 4.589643 -54.394588 0.000000 -0.000000 -0.000002 20.139361 -6.188845 1.117550 6.226501 38.554406 -20.060884 16.319813 65.132206 2.519985 -0.000000 -0.000000 0.000002 11.688003 12.214356 -27.392689 -57.111013 -0.906276 29.682530 -0.000005 41.344047 -0.000007 0.305557 -26.145647 -23.320617 17.255583 -1.222953 13.885387 9.273519 -56.067141 -10.261450 36.686035 -59.101743 10.532876 0.000001 -0.000000 -0.000000 -0.864564 -4.867322 93.609812 8.121326 -6.066788 113.878679 5.667363 -5.966157 100.785944 -0.000000 -0.000000 0.000000 -57.740220 -11.810362 16.623439 47.207003 -9.329776 9.961559 -3.295372 -23.079324 -24.909686 -0.000030 0.000003 -0.000002 0.000000 0.000000 0.000000 33.911152 -19.696433 2.595370 11.768012 -8.275079 2.159465 -27.827161 -33.225100 18.164536 -7.095735 -0.000015 0.000006 0.000000 0.000001 0.000000 
27.716490 69.076782 43.638519 4.775502 14.608301 -8.329372 1.037503 8.588364 -5.816760 -0.018991 6.033572 -3.569663 -0.073290 6.108876 -3.464638 -3.065785 -12.140622 1.562202 -3.023856 -53.099045 8.300970 -0.000001 -0.000001 0.000000 2.875806 -4.487898 -1.274948 47.899085 2.094137 -62.619721 0.000034 -126.785605 0.000037 -29.870777 -22.065543 8.924899 1.773677 9.529991 -51.525793 4.859480 6.482156 -80.718076 2.660940 4.890492 -59.588660 -0.000002 0.000001 0.000001 20.139339 -6.188854 1.117535 6.226504 38.554420 -20.060877 16.319834 65.132226 2.519962 -0.000000 -0.000001 -0.000000 11.907403 16.308393 -26.422635 -54.241312 -1.115318 30.275619 0.000011 65.928947 -0.000014 14.857374 -18.059430 -23.635735 17.255578 -1.222947 13.885380 9.276037 -56.066960 -10.259704 36.685448 -59.101880 10.532184 -0.000000 0.000001 -0.000002 -0.862899 -4.865948 93.609887 8.121314 -6.066802 113.878665 5.667353 -5.966181 100.785937 0.000000 -0.000000 -0.000001 -60.821742 -11.392216 15.900168 49.369574 -8.764880 9.952077 -4.143676 -25.899683 -24.720809 -0.000027 -0.000002 -0.000001 0.000000 -0.000000 -0.000000 34.867559 -18.987639 2.725596 10.578482 -8.455827 1.481213 -28.645578 -33.120701 19.799573 -7.903885 -0.000018 -0.000003 -0.000000 -0.000002 -0.000001 
27.705654 68.894295 43.748177 5.296574 14.745074 -7.788499 1.254564 8.217641 -6.592580 0.123719 5.855207 -3.942114 0.063644 5.945954 -3.828610 -2.931710 -11.822728 0.696955 -2.295120 -52.362269 8.548669 -0.000000 0.000001 0.000000 2.958804 -4.790046 -3.458475 49.409332 8.582874 -67.328924 0.000003 -115.346554 -0.000002 -32.096838 -18.692334 4.942876 2.102418 9.843073 -55.988843 5.304296 6.536849 -85.176762 3.048536 5.115935 -64.030558 -0.000000 0.000003 -0.000002 20.139322 -6.188858 1.117538 6.226525 38.554413 -20.060894 16.319815 65.132213 2.519989 0.000000 -0.000002 -0.000000 12.769040 22.714983 -23.549857 -54.035939 0.853988 37.532928 -0.000002 81.687416 0.000009 6.807568 -7.836897 -26.354544 16.290896 -1.719896 13.250035 9.343589 -55.109293 -10.167005 34.849394 -57.920817 9.040569 -0.000000 0.000001 -0.000001 -0.396527 -2.941700 77.164650 6.509783 -6.512091 97.190477 3.962112 -5.687526 84.106936 0.000001 -0.000001 -0.000000 -62.135549 -9.702674 15.367470 49.776107 -8.551799 9.955117 -3.116379 -25.729946 -23.454417 -0.000086 0.000002 -0.000002 -0.000000 0.000001 0.000000 33.758569 -19.203775 2.228707 11.902822 -8.360187 1.108833 -29.767081 -33.148575 19.914559 -8.707486 -0.000004 0.000007 -0.000000 -0.000001 -0.000001 
27.608305 69.087692 43.787666 6.240769 14.964232 -7.944336 2.188446 8.054459 -7.205787 0.838381 5.859793 -4.309865 0.770564 5.949697 -4.218446 -3.055838 -11.721986 -0.094941 -1.801419 -52.928789 9.921357 0.000000 0.000000 0.000000 2.974789 -4.854393 -3.932550 49.788131 16.595714 -73.026743 0.000094 -108.023000 0.000110 -31.028337 -13.168862 4.667483 2.422064 10.104939 -60.048489 5.711040 6.556598 -89.227932 3.415003 5.294289 -68.068429 0.000001 -0.000001 -0.000001 20.139337 -6.188850 1.117535 6.226490 38.554410 -20.060860 16.319829 65.132213 2.519953 -0.000000 -0.000003 -0.000000 14.249350 29.167749 -21.941009 -50.452015 0.535974 49.182512 -0.003373 91.483916 0.003524 8.502876 -5.163215 -23.729829 9.862149 -4.398904 9.166786 9.642393 -48.967337 -9.717694 25.800985 -49.824201 1.963234 0.000000 0.000000 -0.000000 2.047759 0.146737 44.070583 3.227583 -5.960205 63.613445 1.128914 -3.754562 50.664359 0.000000 -0.000001 0.000001 -63.069161 -8.746334 15.394893 49.091469 -8.410796 9.835696 -1.939439 -25.549832 -22.604812 -0.000029 0.000003 -0.000003 -0.000000 -0.000001 -0.000000 29.970300 -19.664451 2.063511 17.587635 -7.678926 1.597206 -33.303162 -33.565698 15.110154 -8.811489 0.000010 -0.000004 0.000001 -0.000004 -0.000001 
27.248688 69.160011 43.487335 8.277177 15.449750 -8.795616 3.824372 7.890921 -7.626799 2.150869 5.844493 -4.671251 2.079530 5.920866 -4.625211 -3.415685 -11.401447 -0.779932 -3.093004 -52.671902 11.054373 -0.000001 0.000001 0.000000 2.826462 -4.343805 -1.936928 49.508466 24.545007 -79.289187 0.000099 -109.044346 0.000109 -29.007291 -7.950805 6.220505 2.696763 10.301836 -63.367066 6.043604 6.551521 -92.536229 3.723100 5.420544 -71.367404 0.000003 0.000003 -0.000001 20.139346 -6.188859 1.117546 6.226515 38.554413 -20.060892 16.319829 65.132219 2.519981 -0.000000 0.000001 0.000001 15.505504 34.120524 -19.848759 -45.374565 3.648147 57.915899 0.001286 91.379988 -0.001157 12.505513 -4.639541 -21.649377 0.652999 -6.653899 3.703114 9.796309 -40.568988 -9.377448 18.550053 -38.046548 -3.128727 -0.000000 -0.000000 0.000000 4.852548 1.300805 18.652746 1.244388 -4.349477 38.000686 -0.033716 -1.388895 25.186340 0.000001 -0.000002 0.000001 -65.090296 -8.781617 15.705542 47.155916 -8.485363 9.093249 0.293598 -25.759690 -22.063801 -0.000057 -0.000003 0.000002 0.000000 -0.000001 -0.000000 23.210252 -21.296745 1.164992 27.260171 -10.862031 2.022688 -33.605490 -32.820685 13.821160 -7.978848 0.000003 -0.000001 0.000000 -0.000001 0.000002 
